<svg width="40" height="40" viewBox="0 0 40 40" fill="none" xmlns="http://www.w3.org/2000/svg">
<path d="M0 16C0 7.16344 7.16344 0 16 0H24C32.8366 0 40 7.16344 40 16V24C40 32.8366 32.8366 40 24 40H16C7.16344 40 0 32.8366 0 24V16Z" fill="#F2F2F7"/>
<path d="M19.1667 25.8333V21.6667L12.875 14.5833C12.7639 14.4722 12.6736 14.3438 12.6042 14.1979C12.5347 14.0521 12.5 13.9028 12.5 13.75C12.5 13.3889 12.625 13.0903 12.875 12.8542C13.125 12.6181 13.4306 12.5 13.7917 12.5H26.2083C26.5694 12.5 26.875 12.6181 27.125 12.8542C27.375 13.0903 27.5 13.3889 27.5 13.75C27.5 13.9028 27.4653 14.0521 27.3958 14.1979C27.3264 14.3438 27.2361 14.4722 27.125 14.5833L20.8333 21.6667V25.8333H24.1667C24.4028 25.8333 24.6007 25.9132 24.7604 26.0729C24.9201 26.2326 25 26.4306 25 26.6667C25 26.9028 24.9201 27.1007 24.7604 27.2604C24.6007 27.4201 24.4028 27.5 24.1667 27.5H15.8333C15.5972 27.5 15.3993 27.4201 15.2396 27.2604C15.0799 27.1007 15 26.9028 15 26.6667C15 26.4306 15.0799 26.2326 15.2396 26.0729C15.3993 25.9132 15.5972 25.8333 15.8333 25.8333H19.1667ZM16.2083 15.8333H23.7917L25.2917 14.1667H14.7083L16.2083 15.8333Z" fill="#8E8E93"/>
</svg>
